<?xml version="1.0" encoding="utf-8"?>
<svg version="1.1" id="Layer_1" xmlns="http://www.w3.org/2000/svg" viewBox="0 0 500 500" xml:space="preserve">
  <defs>
    <mask id="hole-punch">
      <rect width="100%" height="100%" fill="white" />

        <polyline fill="none" stroke="black" stroke-width="5" stroke-miterlimit="10" points="423.5,186.97 399.71,187.97 425.71,208.97 "/>

        <path fill="black" d="M350.91,191.85c-0.99,0-2.01-0.03-3.03-0.1c-10.15-0.66-16.76-4.21-16.57-7.1c0.19-2.84,6.35-4.98,14.33-4.98c0.99,0,2.01,0.03,3.03,0.1c4.61,0.3,8.89,1.25,12.05,2.67c2.97,1.33,4.62,2.95,4.52,4.43C365.05,189.71,358.89,191.85,350.91,191.85z"/>
        <path fill="black" d="M345.64,179.17v1c0.98,0,1.99,0.03,2.99,0.1c4.55,0.3,8.77,1.23,11.88,2.62c2.73,1.22,4.31,2.7,4.23,3.94c-0.14,2.17-5.47,4.51-13.83,4.51c-0.98,0-1.99-0.03-2.99-0.1c-4.55-0.3-8.77-1.23-11.88-2.62c-2.73-1.22-4.31-2.7-4.23-3.94c0.14-2.17,5.47-4.51,13.83-4.51V179.17 M345.64,179.17c-8.22,0-14.62,2.25-14.83,5.44c-0.23,3.58,7.39,7,17.04,7.63c1.04,0.07,2.06,0.1,3.06,0.1c8.22,0,14.62-2.25,14.83-5.44c0.23-3.58-7.39-7-17.04-7.63C347.66,179.2,346.64,179.17,345.64,179.17L345.64,179.17L345.64,179.17z"/>
    </mask>
  </defs>

    <path fill="#000000" mask="url(#hole-punch)" d="M199.71,201.97c-8.53-0.88-20.73-1.33-35,1c-16.37,2.68-52.56,8.47-73,39c-14.06,21-24.23,58.34-4,86c14.65,20.02,37.8,24.8,45,26l246-1l-29-20l28-19l-4-51c5.07-0.01,15.38-0.74,26-7c12.96-7.64,18.55-18.9,21-24c12.54-26.14,1.18-53.08-1-58c-40.33-0.33-80.67-0.67-121-1c-36.81-28.73-82.37-17.53-95,6c-10.34,19.26-1.46,52.08,26,73c11-7.67,22-15.33,33-23"/>
</svg>
